<svg id="图层_1" data-name="图层 1" xmlns="http://www.w3.org/2000/svg" xmlns:xlink="http://www.w3.org/1999/xlink" viewBox="0 0 300 301"><defs><style>.cls-1{fill:#2365c8;}.cls-2{fill:url(#未命名的渐变);}.cls-3{fill:#3895fc;}</style><linearGradient id="未命名的渐变" x1="58.8" y1="1030.5" x2="276.83" y2="1030.5" gradientTransform="translate(0 -880)" gradientUnits="userSpaceOnUse"><stop offset="0" stop-color="#3895fc"/><stop offset="1" stop-color="#2365c8"/></linearGradient></defs><path class="cls-1" d="M101.6,214.26,80.46,202a18.61,18.61,0,0,1-9.24-16.08v-82l30.38,18Z"/><path class="cls-1" d="M144.43,239.34l-23-13.46a14.82,14.82,0,0,1-7.36-12.83V127.86L144.43,146Z"/><path class="cls-2" d="M263.39,75.28,241.11,88.56v102a21.72,21.72,0,0,1-10.88,18.85l-69.27,40a21.75,21.75,0,0,1-21.84,0L70,209.19A21.71,21.71,0,0,1,59.2,190.44L59,110.5A21.82,21.82,0,0,1,69.7,91.69l71-41.82L180,26.78l-17.74-10.5a24.53,24.53,0,0,0-24.5,0L39.93,72.77A24.51,24.51,0,0,0,27.68,94.05V207a24.49,24.49,0,0,0,12.25,21.24l97.81,56.48a24.53,24.53,0,0,0,24.5,0l97.83-56.48A24.65,24.65,0,0,0,272.32,207V94.26C272.37,85.88,270.08,79.34,263.39,75.28Z"/><path class="cls-3" d="M144.44,146.06l-30.36-18.13,111.28-65.1a16.38,16.38,0,0,1,16.31,0l21.72,12.45Z"/><polygon class="cls-3" points="101.6 121.98 71.22 103.96 191.29 33.24 222.27 51.3 101.6 121.98"/></svg>